<svg xmlns="http://www.w3.org/2000/svg" xmlns:xlink="http://www.w3.org/1999/xlink" version="1.1" x="0px" y="0px" viewBox="0 0 100 125" style="enable-background:new 0 0 100 100;" xml:space="preserve"><path d="M82.756,60.443c0.034-0.082,0.038-0.167,0.028-0.25c-0.001-0.01,0.005-0.019,0.004-0.029l-3.822-21.77l2.162-26.854  c0.016-0.198-0.087-0.387-0.262-0.481c-0.175-0.093-0.389-0.076-0.546,0.048L61.954,25.584H38.046L19.682,11.108  c-0.156-0.124-0.371-0.142-0.546-0.048c-0.175,0.094-0.278,0.283-0.262,0.481l2.162,26.854l-3.823,21.77  c-0.002,0.01,0.005,0.019,0.004,0.029c-0.01,0.083-0.007,0.168,0.028,0.25c0.001,0.002,0.003,0.002,0.003,0.004  c0.022,0.052,0.069,0.088,0.108,0.13c0.028,0.03,0.046,0.07,0.08,0.092c0.001,0.001,0.002,0.003,0.003,0.004l16.03,10.092  l6.04,12.042l0,0c0.001,0.002,0.003,0.003,0.004,0.005c0.033,0.065,0.079,0.122,0.137,0.166l7.667,5.917  C47.405,88.963,47.512,89,47.623,89h4.755c0.11,0,0.218-0.037,0.306-0.104l7.667-5.917c0.057-0.044,0.103-0.102,0.137-0.166  c0.001-0.002,0.003-0.003,0.004-0.005l0,0l6.041-12.042l16.029-10.092c0.001-0.001,0.002-0.003,0.003-0.004  c0.035-0.022,0.053-0.064,0.082-0.095c0.038-0.042,0.084-0.076,0.106-0.128C82.753,60.446,82.755,60.445,82.756,60.443z   M66.284,69.74l-7.536-10.775l-0.011-0.144l9.391-3.946l13.085,5.465L66.284,69.74z M54.412,86.298L50.5,84.318V83h1.877  c0.093,0,0.185-0.026,0.264-0.075l3.371-2.092l3.136,1.811L54.412,86.298z M40.852,82.644l3.136-1.811l3.371,2.092  C47.438,82.974,47.53,83,47.623,83H49.5v1.318l-3.912,1.98L40.852,82.644z M18.787,60.34l13.085-5.465l9.391,3.946l-0.011,0.144  L33.717,69.74L18.787,60.34z M68.1,53.15l-1.342-2.709l4.385-4.244L68.1,53.15z M34.068,51.03l9.143,5.136l-1.292,1.847  l-9.362-3.934L34.068,51.03z M35.765,50.836h5.836l1.426,4.08L35.765,50.836z M42.229,59.314l1.211-1.732l0.057,22.38l-2.971,1.715  L42.229,59.314z M44.436,55.999c0-0.024-0.008-0.047-0.012-0.071c-0.002-0.013,0.002-0.026-0.001-0.039  c-0.002-0.008-0.007-0.013-0.01-0.021c-0.003-0.011-0.002-0.022-0.006-0.033l-1.98-5.664c-0.07-0.201-0.26-0.335-0.472-0.335h-7.9  l-4.895-4.738l12.453,3.539l7.833,3.656L45.642,76.17l-1.149,2.119L44.436,55.999z M50,55.177l3.292,20.657h-6.583L50,55.177z   M54.358,76.17l-3.805-23.877l7.833-3.656l12.453-3.539l-4.895,4.738h-7.901c-0.212,0-0.402,0.134-0.472,0.335l-1.98,5.664  c-0.004,0.011-0.003,0.022-0.006,0.033c-0.002,0.007-0.008,0.013-0.01,0.021c-0.003,0.013,0.001,0.026-0.001,0.039  c-0.004,0.024-0.012,0.047-0.012,0.071l-0.057,22.291L54.358,76.17z M64.236,50.836l-7.263,4.08l1.426-4.08H64.236z M56.56,57.582  l1.211,1.732l1.702,22.363l-2.97-1.715L56.56,57.582z M56.79,56.166l9.143-5.136l1.511,3.049l-9.362,3.934L56.79,56.166z   M72.36,43.627l-13.517,3.841l3.634-20.494l15.216,11.49L72.36,43.627z M57.764,47.824L50,51.448l-7.764-3.624l-3.767-21.24h23.062  L57.764,47.824z M41.158,47.468l-13.517-3.841l-5.334-5.163l15.216-11.49L41.158,47.468z M33.243,50.441l-1.342,2.709l-3.043-6.953  L33.243,50.441z M41.103,60.923l-1.509,19.824l-5.16-10.288L41.103,60.923z M47.765,82l-3.103-1.926l1.758-3.24h7.16l1.758,3.24  L52.235,82H50H47.765z M58.897,60.923l6.669,9.537l-5.161,10.288L58.897,60.923z M81.644,59.437L68.79,54.068l4.246-9.704  l5.096-4.932L81.644,59.437z M78.036,37.469l-15.09-11.394l17.091-13.473L78.036,37.469z M19.963,12.602l17.091,13.473  l-15.09,11.394L19.963,12.602z M21.869,39.432l5.096,4.932l4.246,9.704l-12.855,5.369L21.869,39.432z M52.207,88h-4.414  l-1.328-1.025L50,85.186l3.534,1.79L52.207,88z"/><text x="0" y="115" fill="#000000" font-size="5px" font-weight="bold" font-family="'Helvetica Neue', Helvetica, Arial-Unicode, Arial, Sans-serif">Created by Alina Oleynik</text><text x="0" y="120" fill="#000000" font-size="5px" font-weight="bold" font-family="'Helvetica Neue', Helvetica, Arial-Unicode, Arial, Sans-serif">from the Noun Project</text></svg>